<?xml version="1.0" encoding="utf-8"?>
<!-- Generator: Adobe Illustrator 23.0.5, SVG Export Plug-In . SVG Version: 6.00 Build 0)  -->
<svg version="1.1" id="Layer_1" xmlns="http://www.w3.org/2000/svg" xmlns:xlink="http://www.w3.org/1999/xlink" x="0px" y="0px"
	 viewBox="0 0 1500 1500" style="enable-background:new 0 0 1500 1500;" xml:space="preserve">
<style type="text/css">
	.st0{fill:#FEFEFE;}
</style>
<g>
	<g>
		<path class="st0" d="M474.96,559.66c58.74,2.57,111.38,17.08,161.89,40.24c19.56,8.97,21.27,8.41,30.75-11.57
			c38.02-80.14,90.07-148.11,163.78-197.9c54.77-36.99,113.88-59.18,180.29-58.11c25.26,0.41,50.6-2.12,75.77,1.85
			c3.34,0.53,8.03-0.5,9.22,3.78c1.05,3.77-3.31,5.11-5.56,7.18c-33.78,31.14-54.65,71.12-73.58,112.22
			c-16.22,35.22-27.26,72.27-35.5,110.27c-12.45,57.38-34.45,110.34-72.2,155.69c-16.25,19.52-34.93,36.09-56.5,49.31
			c-10.68,6.54-11.46,13.26-2.55,21.32c27.34,24.74,57.43,45.04,91.56,58.92c20.4,8.29,39.67,10.77,61.78,2.12
			c42.02-16.44,85.89-26.59,131.55-24.92c6.38,0.23,12.81,0.86,19.09,1.98c12.92,2.3,14.12,4.15,11.38,17.53
			c-6.87,33.52-28.2,57.05-53,77.95c-6.83,5.75-14.2,11.14-22.07,15.23c-9.76,5.08-13.2,12.86-14.8,23.28
			c-7.04,45.82-15.62,91.35-29.25,135.71c-2.01,6.54-4.47,13.01-7.37,19.19c-3.67,7.82-9.24,8.32-15.45,2.75
			c-6.77-6.08-11.65-13.7-16.14-21.52c-25.49-44.39-42.37-92.49-58.47-140.9c-5.63-16.92-7.14-17.71-23.73-12.57
			c-88.31,27.32-175.58,28.48-260.52-12.6c-55.3-26.74-102.08-64.83-138.51-115.05c-15.19-20.95-28.61-43.34-38.31-67.64
			c-28.17-70.59-87.16-94.03-151.01-87.5c-4.61,0.47-9.27,0.63-13.81,1.48c-9.4,1.76-9.19-2.48-6.72-9.61
			c18.55-53.61,70.55-93.55,126.99-97.08C455.32,560,466.67,557.68,474.96,559.66z"/>
	</g>
	<path class="st0" d="M841.77,359.63c-1.38,1.05-2.68,2.22-4.14,3.12c-80.58,49.69-138.48,120.19-181.42,204.38
		c-8.05,15.79-7.97,16.11-23.88,9.28c-23.02-9.89-46.67-17.71-70.88-23.92c-12.99-3.33-13.73-4.64-10.27-18.13
		c16.29-63.44,55.24-107.64,111.26-138.68C718.5,364.6,779.03,358.53,841.77,359.63z"/>
</g>
</svg>
